# xmcd
#
# Track frame offsets: 
#        150
#        8135
#        16970
#        26165
#        35272
#        44317
#        53310
#        67652
#        77792
#        86745
#        97522
#        107025
#        115675
#        126515
#        137617
#        149832
#        160822
#        173800
#        185017
#        196462
#        206462
#        218055
#        232047
#        243567
#
# Disc length: 3375 seconds
#
# Revision: 0
# Processed by: cddbd v1.5.1PL0 Copyright (c) Steve Scherf et al.
# Submitted via: ExactAudioCopy v0.95a4
#
DISCID=430d2d18
DTITLE=Various Artist - The 'D' Singles Volume 3 - Disc 2
DYEAR=1900
DGENRE=Country
TTITLE0=Merl Lindsay: DJ's Hop
TTITLE1=Merl Lindsay: Waterbaby Ride
TTITLE2=Merl Lindsay: Turnpike Cruise
TTITLE3=Merl Lindsay: Meantime
TTITLE4=Eddie Noack: Shake Hands With The Blues
TTITLE5=Eddie Noack: Sunflower Song
TTITLE6=Bill Mack: I'll Come Back
TTITLE7=Bill Mack: John's Back In Town
TTITLE8=Travis Sims: Wheels A Humming
TTITLE9=Travis Sims: While The Town Is Asleep
TTITLE10=Carl Sauceman and The Green Valley Boys: Never Say Bye Bye
TTITLE11=Carl Sauceman and The Green Valley Boys: Covin Hill Rag
TTITLE12=Glenn Barber: The Window
TTITLE13=Glenn Barber: Another You
TTITLE14=Herby Remington: Coo Coo Creek Hop
TTITLE15=Herby Remington: Chime Out For Love
TTITLE16=Country Johnny Mathis: Caryl Chessman
TTITLE17=Country Johnny Mathis: Tears And Gold
TTITLE18=Willie Nelson: What A Way To Live
TTITLE19=Willie Nelson: Misery Mansion
TTITLE20=Willie Nelson: Nite Life (alt)
TTITLE21=Willie Nelson: Rainy Day Blues (alt)
TTITLE22=Harry Choates: Basile Waltz
TTITLE23=Harry Choates: Tondelay
EXTD=
EXTT0=
EXTT1=
EXTT2=
EXTT3=
EXTT4=
EXTT5=
EXTT6=
EXTT7=
EXTT8=
EXTT9=
EXTT10=
EXTT11=
EXTT12=
EXTT13=
EXTT14=
EXTT15=
EXTT16=
EXTT17=
EXTT18=
EXTT19=
EXTT20=
EXTT21=
EXTT22=
EXTT23=
PLAYORDER=
